<mxfile host="65bd71144e" scale="1" border="10">
    <diagram id="aH86nPMYfesfR94W3CiF" name="Page-1">
        <mxGraphModel dx="1603" dy="1093" grid="0" gridSize="10" guides="1" tooltips="1" connect="1" arrows="1" fold="1" page="1" pageScale="1" pageWidth="827" pageHeight="1169" background="#FFFFFF" math="0" shadow="0">
            <root>
                <mxCell id="0"/>
                <mxCell id="1" parent="0"/>
                <mxCell id="5" style="edgeStyle=none;html=1;exitX=0.5;exitY=1;exitDx=0;exitDy=0;entryX=0.5;entryY=0;entryDx=0;entryDy=0;fontColor=#000000;labelBackgroundColor=none;strokeColor=#000000;" parent="1" source="3" target="4" edge="1">
                    <mxGeometry relative="1" as="geometry"/>
                </mxCell>
                <mxCell id="3" value="Start&lt;br&gt;(entering the website)" style="ellipse;whiteSpace=wrap;html=1;fillColor=#F0B8AD;fontColor=#000000;gradientColor=none;strokeColor=#454545;labelBackgroundColor=none;" parent="1" vertex="1">
                    <mxGeometry x="11" y="34" width="120" height="80" as="geometry"/>
                </mxCell>
                <mxCell id="7" style="edgeStyle=none;html=1;exitX=1;exitY=0.5;exitDx=0;exitDy=0;entryX=0;entryY=0.5;entryDx=0;entryDy=0;fontSize=12;fontFamily=Verdana;fontColor=#000000;labelBackgroundColor=none;strokeColor=#000000;" parent="1" source="4" target="6" edge="1">
                    <mxGeometry relative="1" as="geometry"/>
                </mxCell>
                <mxCell id="8" value="Yes" style="edgeLabel;html=1;align=center;verticalAlign=middle;resizable=0;points=[];fontSize=12;fontFamily=Verdana;fontColor=#000000;labelBackgroundColor=none;" parent="7" vertex="1" connectable="0">
                    <mxGeometry x="-0.4" y="2" relative="1" as="geometry">
                        <mxPoint x="2" y="-8" as="offset"/>
                    </mxGeometry>
                </mxCell>
                <mxCell id="11" style="edgeStyle=none;html=1;exitX=0.5;exitY=1;exitDx=0;exitDy=0;entryX=0;entryY=0.5;entryDx=0;entryDy=0;fontFamily=Verdana;fontSize=12;rounded=0;fontColor=#000000;labelBackgroundColor=none;strokeColor=#000000;" parent="1" source="4" target="9" edge="1">
                    <mxGeometry relative="1" as="geometry">
                        <Array as="points">
                            <mxPoint x="71" y="294"/>
                        </Array>
                    </mxGeometry>
                </mxCell>
                <mxCell id="14" value="No" style="edgeLabel;html=1;align=center;verticalAlign=middle;resizable=0;points=[];fontSize=12;fontFamily=Verdana;fontColor=#000000;labelBackgroundColor=none;" parent="11" vertex="1" connectable="0">
                    <mxGeometry x="0.1501" relative="1" as="geometry">
                        <mxPoint x="-31" y="-20" as="offset"/>
                    </mxGeometry>
                </mxCell>
                <mxCell id="4" value="&lt;font style=&quot;font-size: 12px;&quot;&gt;Search for a product&lt;/font&gt;" style="rhombus;whiteSpace=wrap;html=1;strokeColor=#454545;fillColor=#EBAE5E;fontColor=#000000;labelBackgroundColor=none;" parent="1" vertex="1">
                    <mxGeometry x="21" y="154" width="100" height="100" as="geometry"/>
                </mxCell>
                <mxCell id="15" style="edgeStyle=none;html=1;exitX=1;exitY=0.5;exitDx=0;exitDy=0;fontFamily=Verdana;fontSize=12;endArrow=none;endFill=0;rounded=0;fontColor=#000000;labelBackgroundColor=none;strokeColor=#000000;" parent="1" source="6" edge="1">
                    <mxGeometry relative="1" as="geometry">
                        <mxPoint x="351" y="294" as="targetPoint"/>
                        <Array as="points">
                            <mxPoint x="351" y="204"/>
                        </Array>
                    </mxGeometry>
                </mxCell>
                <mxCell id="6" value="Read iput as &lt;br&gt;target product" style="shape=parallelogram;perimeter=parallelogramPerimeter;whiteSpace=wrap;html=1;fixedSize=1;fontSize=12;strokeColor=#454545;fillColor=#92B6DE;fontColor=#000000;labelBackgroundColor=none;" parent="1" vertex="1">
                    <mxGeometry x="171" y="174" width="120" height="60" as="geometry"/>
                </mxCell>
                <mxCell id="20" style="edgeStyle=none;html=1;entryX=0;entryY=0.5;entryDx=0;entryDy=0;fontFamily=Verdana;fontSize=12;endArrow=classic;endFill=1;fontColor=#000000;labelBackgroundColor=none;strokeColor=#000000;" parent="1" source="9" target="13" edge="1">
                    <mxGeometry relative="1" as="geometry"/>
                </mxCell>
                <mxCell id="9" value="Set target product as null/default" style="rounded=1;whiteSpace=wrap;html=1;fontFamily=Verdana;fontSize=12;strokeColor=#454545;fillColor=#FFF88F;fontColor=#000000;labelBackgroundColor=none;" parent="1" vertex="1">
                    <mxGeometry x="171" y="264" width="120" height="60" as="geometry"/>
                </mxCell>
                <mxCell id="18" style="edgeStyle=none;html=1;entryX=0.5;entryY=0;entryDx=0;entryDy=0;fontFamily=Verdana;fontSize=12;endArrow=classic;endFill=1;fontColor=#000000;labelBackgroundColor=none;strokeColor=#000000;" parent="1" source="13" target="17" edge="1">
                    <mxGeometry relative="1" as="geometry"/>
                </mxCell>
                <mxCell id="13" value="Generate a list of products based on target product" style="rounded=1;whiteSpace=wrap;html=1;fontFamily=Verdana;fontSize=12;strokeColor=#454545;fillColor=#FFF88F;fontColor=#000000;labelBackgroundColor=none;" parent="1" vertex="1">
                    <mxGeometry x="391" y="264" width="120" height="60" as="geometry"/>
                </mxCell>
                <mxCell id="22" style="edgeStyle=none;html=1;exitX=1;exitY=0.5;exitDx=0;exitDy=0;entryX=0;entryY=0.5;entryDx=0;entryDy=0;fontFamily=Verdana;fontSize=12;endArrow=classic;endFill=1;fontColor=#000000;labelBackgroundColor=none;strokeColor=#000000;" parent="1" source="17" target="21" edge="1">
                    <mxGeometry relative="1" as="geometry"/>
                </mxCell>
                <mxCell id="24" value="Yes" style="edgeLabel;html=1;align=center;verticalAlign=middle;resizable=0;points=[];fontSize=12;fontFamily=Verdana;fontColor=#000000;labelBackgroundColor=none;" parent="22" vertex="1" connectable="0">
                    <mxGeometry x="-0.3429" y="-2" relative="1" as="geometry">
                        <mxPoint x="1" y="-12" as="offset"/>
                    </mxGeometry>
                </mxCell>
                <mxCell id="36" style="edgeStyle=none;html=1;exitX=0.5;exitY=1;exitDx=0;exitDy=0;fontFamily=Verdana;fontSize=12;endArrow=none;endFill=0;rounded=0;fontColor=#000000;labelBackgroundColor=none;strokeColor=#000000;" parent="1" source="17" edge="1">
                    <mxGeometry relative="1" as="geometry">
                        <mxPoint x="611" y="614" as="targetPoint"/>
                        <Array as="points">
                            <mxPoint x="451" y="614"/>
                        </Array>
                    </mxGeometry>
                </mxCell>
                <mxCell id="66" value="No" style="edgeLabel;html=1;align=center;verticalAlign=middle;resizable=0;points=[];fontColor=#000000;labelBackgroundColor=none;" vertex="1" connectable="0" parent="36">
                    <mxGeometry x="-0.8209" y="5" relative="1" as="geometry">
                        <mxPoint x="4" y="-7" as="offset"/>
                    </mxGeometry>
                </mxCell>
                <mxCell id="17" value="View a specific product" style="rhombus;whiteSpace=wrap;html=1;fontFamily=Verdana;fontSize=12;strokeColor=#454545;fillColor=#EBAE5E;fontColor=#000000;labelBackgroundColor=none;" parent="1" vertex="1">
                    <mxGeometry x="411" y="364" width="80" height="80" as="geometry"/>
                </mxCell>
                <mxCell id="39" style="edgeStyle=none;html=1;fontFamily=Verdana;fontSize=12;endArrow=none;endFill=0;rounded=0;fontColor=#000000;labelBackgroundColor=none;strokeColor=#000000;" parent="1" source="19" edge="1">
                    <mxGeometry relative="1" as="geometry">
                        <mxPoint x="71.00000000000011" y="134" as="targetPoint"/>
                        <Array as="points">
                            <mxPoint x="811" y="684"/>
                            <mxPoint x="811" y="134"/>
                        </Array>
                    </mxGeometry>
                </mxCell>
                <mxCell id="40" value="Yes" style="edgeLabel;html=1;align=center;verticalAlign=middle;resizable=0;points=[];fontSize=12;fontFamily=Verdana;fontColor=#000000;labelBackgroundColor=none;" parent="39" vertex="1" connectable="0">
                    <mxGeometry x="-0.9541" y="-2" relative="1" as="geometry">
                        <mxPoint x="-13" y="-12" as="offset"/>
                    </mxGeometry>
                </mxCell>
                <mxCell id="42" style="edgeStyle=none;html=1;entryX=0.5;entryY=0;entryDx=0;entryDy=0;fontFamily=Verdana;fontSize=12;endArrow=classic;endFill=1;fontColor=#000000;labelBackgroundColor=none;strokeColor=#000000;" parent="1" source="19" target="41" edge="1">
                    <mxGeometry relative="1" as="geometry"/>
                </mxCell>
                <mxCell id="57" value="No" style="edgeLabel;html=1;align=center;verticalAlign=middle;resizable=0;points=[];fontSize=12;fontFamily=Verdana;fontColor=#000000;labelBackgroundColor=none;" parent="42" vertex="1" connectable="0">
                    <mxGeometry x="-0.44" relative="1" as="geometry">
                        <mxPoint x="15" as="offset"/>
                    </mxGeometry>
                </mxCell>
                <mxCell id="19" value="Continue shopping" style="rhombus;whiteSpace=wrap;html=1;fontFamily=Verdana;fontSize=12;strokeColor=#454545;fillColor=#EBAE5E;fontColor=#000000;labelBackgroundColor=none;" parent="1" vertex="1">
                    <mxGeometry x="571" y="644" width="80" height="80" as="geometry"/>
                </mxCell>
                <mxCell id="28" style="edgeStyle=none;html=1;entryX=0.5;entryY=0;entryDx=0;entryDy=0;fontFamily=Verdana;fontSize=12;endArrow=classic;endFill=1;fontColor=#000000;labelBackgroundColor=none;strokeColor=#000000;" parent="1" source="21" target="27" edge="1">
                    <mxGeometry relative="1" as="geometry"/>
                </mxCell>
                <mxCell id="21" value="Open product's webpage" style="rounded=1;whiteSpace=wrap;html=1;fontFamily=Verdana;fontSize=12;strokeColor=#454545;fillColor=#FFF88F;fontColor=#000000;labelBackgroundColor=none;" parent="1" vertex="1">
                    <mxGeometry x="551" y="374" width="120" height="60" as="geometry"/>
                </mxCell>
                <mxCell id="30" style="edgeStyle=none;html=1;entryX=0;entryY=0.5;entryDx=0;entryDy=0;fontFamily=Verdana;fontSize=12;endArrow=classic;endFill=1;fontColor=#000000;labelBackgroundColor=none;strokeColor=#000000;" parent="1" source="27" target="47" edge="1">
                    <mxGeometry relative="1" as="geometry">
                        <mxPoint x="691" y="504" as="targetPoint"/>
                    </mxGeometry>
                </mxCell>
                <mxCell id="31" value="Yes" style="edgeLabel;html=1;align=center;verticalAlign=middle;resizable=0;points=[];fontSize=12;fontFamily=Verdana;fontColor=#000000;labelBackgroundColor=none;" parent="30" vertex="1" connectable="0">
                    <mxGeometry x="-0.2375" y="2" relative="1" as="geometry">
                        <mxPoint y="-8" as="offset"/>
                    </mxGeometry>
                </mxCell>
                <mxCell id="33" style="edgeStyle=none;html=1;entryX=0.5;entryY=0;entryDx=0;entryDy=0;fontFamily=Verdana;fontSize=12;endArrow=classic;endFill=1;fontColor=#000000;labelBackgroundColor=none;strokeColor=#000000;" parent="1" source="27" target="19" edge="1">
                    <mxGeometry relative="1" as="geometry"/>
                </mxCell>
                <mxCell id="34" value="No" style="edgeLabel;html=1;align=center;verticalAlign=middle;resizable=0;points=[];fontSize=12;fontFamily=Verdana;fontColor=#000000;labelBackgroundColor=none;" parent="33" vertex="1" connectable="0">
                    <mxGeometry x="-0.5277" y="2" relative="1" as="geometry">
                        <mxPoint x="8" y="-3" as="offset"/>
                    </mxGeometry>
                </mxCell>
                <mxCell id="27" value="Add to cart" style="rhombus;whiteSpace=wrap;html=1;fontFamily=Verdana;fontSize=12;strokeColor=#454545;fillColor=#EBAE5E;fontColor=#000000;labelBackgroundColor=none;" parent="1" vertex="1">
                    <mxGeometry x="571" y="464" width="80" height="80" as="geometry"/>
                </mxCell>
                <mxCell id="35" style="edgeStyle=none;html=1;fontFamily=Verdana;fontSize=12;endArrow=none;endFill=0;exitX=0.5;exitY=1;exitDx=0;exitDy=0;rounded=0;fontColor=#000000;labelBackgroundColor=none;strokeColor=#000000;" parent="1" source="47" edge="1">
                    <mxGeometry relative="1" as="geometry">
                        <mxPoint x="611" y="614" as="targetPoint"/>
                        <mxPoint x="736.45" y="524.5400000000001" as="sourcePoint"/>
                        <Array as="points">
                            <mxPoint x="741" y="614"/>
                        </Array>
                    </mxGeometry>
                </mxCell>
                <mxCell id="44" style="edgeStyle=none;html=1;entryX=0.5;entryY=0;entryDx=0;entryDy=0;fontFamily=Verdana;fontSize=12;endArrow=classic;endFill=1;fontColor=#000000;labelBackgroundColor=none;strokeColor=#000000;" parent="1" source="41" target="43" edge="1">
                    <mxGeometry relative="1" as="geometry"/>
                </mxCell>
                <mxCell id="59" value="No" style="edgeLabel;html=1;align=center;verticalAlign=middle;resizable=0;points=[];fontSize=12;fontFamily=Verdana;fontColor=#000000;labelBackgroundColor=none;" parent="44" vertex="1" connectable="0">
                    <mxGeometry x="-0.4226" y="1" relative="1" as="geometry">
                        <mxPoint x="11" y="-26" as="offset"/>
                    </mxGeometry>
                </mxCell>
                <mxCell id="56" style="edgeStyle=none;html=1;entryX=1;entryY=0.5;entryDx=0;entryDy=0;fontFamily=Verdana;fontSize=12;endArrow=classic;endFill=1;fontColor=#000000;labelBackgroundColor=none;strokeColor=#000000;" parent="1" source="41" target="48" edge="1">
                    <mxGeometry relative="1" as="geometry"/>
                </mxCell>
                <mxCell id="58" value="Yes" style="edgeLabel;html=1;align=center;verticalAlign=middle;resizable=0;points=[];fontSize=12;fontFamily=Verdana;fontColor=#000000;labelBackgroundColor=none;" parent="56" vertex="1" connectable="0">
                    <mxGeometry x="-0.2304" relative="1" as="geometry">
                        <mxPoint x="8" y="-10" as="offset"/>
                    </mxGeometry>
                </mxCell>
                <mxCell id="41" value="Check out" style="rhombus;whiteSpace=wrap;html=1;fontFamily=Verdana;fontSize=12;strokeColor=#454545;fillColor=#EBAE5E;fontColor=#000000;labelBackgroundColor=none;" parent="1" vertex="1">
                    <mxGeometry x="563.5" y="774" width="95" height="80" as="geometry"/>
                </mxCell>
                <mxCell id="43" value="End&lt;br&gt;(leave the website)" style="ellipse;whiteSpace=wrap;html=1;fontFamily=Verdana;fontSize=12;fillColor=#F0B8AD;fontColor=#000000;strokeColor=#454545;labelBackgroundColor=none;" parent="1" vertex="1">
                    <mxGeometry x="551" y="994" width="120" height="80" as="geometry"/>
                </mxCell>
                <mxCell id="47" value="Send added to cart confirmation" style="rounded=1;whiteSpace=wrap;html=1;fontFamily=Verdana;fontSize=12;strokeColor=#454545;fillColor=#FFF88F;fontColor=#000000;labelBackgroundColor=none;" parent="1" vertex="1">
                    <mxGeometry x="686" y="474" width="110" height="60" as="geometry"/>
                </mxCell>
                <mxCell id="54" style="edgeStyle=none;html=1;entryX=1;entryY=0.5;entryDx=0;entryDy=0;fontFamily=Verdana;fontSize=12;endArrow=classic;endFill=1;fontColor=#000000;labelBackgroundColor=none;strokeColor=#000000;" parent="1" source="48" target="51" edge="1">
                    <mxGeometry relative="1" as="geometry"/>
                </mxCell>
                <mxCell id="48" value="Show View Cart screen" style="rounded=1;whiteSpace=wrap;html=1;fontFamily=Verdana;fontSize=12;strokeColor=#454545;fillColor=#FFF88F;fontColor=#000000;labelBackgroundColor=none;" parent="1" vertex="1">
                    <mxGeometry x="391" y="784" width="120" height="60" as="geometry"/>
                </mxCell>
                <mxCell id="61" style="edgeStyle=none;html=1;fontFamily=Verdana;fontSize=12;endArrow=classic;endFill=1;fontColor=#000000;labelBackgroundColor=none;strokeColor=#000000;" parent="1" source="51" target="60" edge="1">
                    <mxGeometry relative="1" as="geometry"/>
                </mxCell>
                <mxCell id="51" value="On View Payment screen, read input as payment information" style="shape=parallelogram;perimeter=parallelogramPerimeter;whiteSpace=wrap;html=1;fixedSize=1;fontFamily=Verdana;fontSize=12;strokeColor=#454545;fillColor=#92B6DE;fontColor=#000000;labelBackgroundColor=none;" parent="1" vertex="1">
                    <mxGeometry x="171" y="779" width="150" height="70" as="geometry"/>
                </mxCell>
                <mxCell id="65" style="edgeStyle=none;html=1;fontFamily=Verdana;fontSize=12;endArrow=none;endFill=0;fontColor=#000000;labelBackgroundColor=none;strokeColor=#000000;" parent="1" source="60" edge="1">
                    <mxGeometry relative="1" as="geometry">
                        <mxPoint x="611" y="959" as="targetPoint"/>
                    </mxGeometry>
                </mxCell>
                <mxCell id="60" value="Show order confirmation screen and send email confirmation" style="rounded=1;whiteSpace=wrap;html=1;fontFamily=Verdana;fontSize=12;strokeColor=#454545;fillColor=#FFF88F;fontColor=#000000;labelBackgroundColor=none;" parent="1" vertex="1">
                    <mxGeometry x="178.5" y="924" width="135" height="70" as="geometry"/>
                </mxCell>
            </root>
        </mxGraphModel>
    </diagram>
</mxfile>